
<svg width="156px" height="156px" viewBox="0 0 156 156" version="1.1" xmlns="http://www.w3.org/2000/svg" xmlns:xlink="http://www.w3.org/1999/xlink">
    <defs></defs>
    <g id="Page-1" stroke="none" stroke-width="1" fill="none" fill-rule="evenodd">
        <g id="-1-to-1" transform="translate(3.000000, 3.000000)">
            <rect id="Rectangle" stroke="#000000" stroke-width="5" x="0" y="0" width="150" height="150" rx="8"></rect>
            <text id="1" font-family="sans-serif" font-size="48" font-weight="normal" letter-spacing="1.84615397" fill="#000000">
                <tspan x="114" y="46">1</tspan>
            </text>
            <g id="Group-5" transform="translate(8.000000, 86.000000)" font-size="48" font-family="sans-serif" fill="#000000" font-weight="normal">
                <text id="1" letter-spacing="1.84615397">
                    <tspan x="12" y="48">1</tspan>
                </text>
                <text id="-" letter-spacing="1.846154">
                    <tspan x="0" y="46">-</tspan>
                </text>
            </g>
            <g id="Group-4" transform="translate(26.000000, 23.000000)" stroke="#000000">
                <g id="Group-2" transform="translate(37.000000, 0.000000)">
                    <g id="Group">
                        <path d="M12.8106061,52.5320934 L12.8106061,8.05120482" id="Path-2" stroke-width="5"></path>
                        <polygon id="Triangle" fill="#000000" points="12.1363636 0 24.2727273 17.4442771 0 17.4442771"></polygon>
                    </g>
                </g>
                <g id="Group-2" transform="translate(73.000000, 53.500000) rotate(90.000000) translate(-73.000000, -53.500000) translate(60.500000, 26.500000)">
                    <g id="Group">
                        <path d="M12.8106061,52.5320934 L12.8106061,8.05120482" id="Path-2" stroke-width="5"></path>
                        <polygon id="Triangle" fill="#000000" points="12.1363636 0 24.2727273 17.4442771 0 17.4442771"></polygon>
                    </g>
                </g>
                <g id="Group-2" transform="translate(49.500000, 78.000000) rotate(180.000000) translate(-49.500000, -78.000000) translate(37.000000, 51.000000)">
                    <g id="Group">
                        <path d="M12.8106061,52.5320934 L12.8106061,8.05120482" id="Path-2" stroke-width="5"></path>
                        <polygon id="Triangle" fill="#000000" points="12.1363636 0 24.2727273 17.4442771 0 17.4442771"></polygon>
                    </g>
                </g>
                <g id="Group-2" transform="translate(27.000000, 53.500000) rotate(270.000000) translate(-27.000000, -53.500000) translate(14.500000, 26.500000)">
                    <g id="Group">
                        <path d="M12.8106061,52.5320934 L12.8106061,8.05120482" id="Path-2" stroke-width="5"></path>
                        <polygon id="Triangle" fill="#000000" points="12.1363636 0 24.2727273 17.4442771 0 17.4442771"></polygon>
                    </g>
                </g>
            </g>
        </g>
    </g>
</svg>
